<svg width="92" height="18" viewBox="0 0 92 18" fill="none" xmlns="http://www.w3.org/2000/svg">
<path d="M13.7779 17.3039L12.0403 12.8565H10.7996L8.75338 17.3039H5.97741C5.76132 17.3039 5.6233 17.0723 5.7253 16.8808L8.75338 11.1974L10.9792 10.405C11.1645 10.3391 11.3668 10.3391 11.5521 10.405L13.7779 11.1974L17.0547 16.8723C17.1653 17.0638 17.0278 17.3039 16.8073 17.3039H13.7779Z" fill="white"/>
<path d="M5.56785 3.47555L8.53164 7.21146L7.91129 8.29125L3.05559 7.84841L1.6676 10.2644C1.55956 10.4524 1.69013 10.6883 1.90611 10.6953L8.31797 10.9017C8.31797 10.9017 9.06103 9.59626 9.54038 8.76169C10.0419 7.88844 10.8302 6.5288 10.8302 6.5288L7.5782 0.83955C7.46841 0.647476 7.19278 0.647173 7.08257 0.839004L5.56785 3.47555Z" fill="white"/>
<path d="M16.9342 3.47555L13.9704 7.21146L14.5907 8.29125L19.4464 7.84841L20.8344 10.2644C20.9425 10.4524 20.8119 10.6883 20.5959 10.6953L14.184 10.9017C14.184 10.9017 13.441 9.59626 12.9616 8.76169C12.4601 7.88844 11.6718 6.5288 11.6718 6.5288L14.9238 0.83955C15.0336 0.647476 15.3092 0.647173 15.4194 0.839004L16.9342 3.47555Z" fill="white"/>
<path d="M77.8349 15.7444V3.2461H81.0075L83.4187 10.8252C83.4913 11.0439 83.5638 11.2929 83.6363 11.5722C83.7088 11.8516 83.7753 12.1188 83.8357 12.3739C83.9082 12.6289 83.9626 12.8536 83.9989 13.048H84.1439C84.1681 12.8658 84.2104 12.6471 84.2708 12.3921C84.3313 12.137 84.3917 11.8698 84.4521 11.5904C84.5246 11.3111 84.5972 11.0499 84.6697 10.807L87.099 3.2461H90.2173V15.7444H88.2049V8.89401C88.2049 8.43246 88.211 7.95269 88.2231 7.45471C88.2351 6.95672 88.2472 6.51339 88.2593 6.12471C88.2714 5.73604 88.2774 5.48705 88.2774 5.37773H88.1324C88.1082 5.51134 88.0478 5.74211 87.9511 6.07006C87.8665 6.38586 87.7759 6.72594 87.6792 7.09033C87.5825 7.45471 87.4918 7.7705 87.4072 8.03772L84.8872 15.7444H83.0924L80.5724 8.05594C80.4999 7.82516 80.4213 7.55188 80.3367 7.23608C80.2521 6.92028 80.1675 6.59841 80.0829 6.27047C79.9983 5.94252 79.9258 5.64495 79.8654 5.37773H79.7203C79.7324 5.66924 79.7384 6.02755 79.7384 6.45266C79.7505 6.87777 79.7626 7.30895 79.7747 7.74621C79.7868 8.17132 79.7928 8.55392 79.7928 8.89401V15.7444H77.8349Z" fill="white"/>
<path d="M69.7393 15.963C68.6757 15.963 67.7572 15.793 66.9837 15.4529C66.2101 15.1006 65.6179 14.5601 65.207 13.8314C64.796 13.1026 64.5906 12.1795 64.5906 11.0621V3.2461H66.6211V11.1167C66.6211 12.1492 66.893 12.9265 67.4369 13.4488C67.9808 13.9711 68.7483 14.2322 69.7393 14.2322C70.7425 14.2322 71.5221 13.9711 72.078 13.4488C72.6461 12.9265 72.9301 12.1492 72.9301 11.1167V3.2461H74.9606V11.0621C74.9606 12.1795 74.7491 13.1026 74.3261 13.8314C73.9152 14.5601 73.3169 15.1006 72.5313 15.4529C71.7578 15.793 70.8271 15.963 69.7393 15.963Z" fill="white"/>
<path d="M59.67 15.7444V3.2461H61.7005V15.7444H59.67Z" fill="white"/>
<path d="M46.5863 15.7444V3.2461H53.131C54.0133 3.2461 54.7446 3.404 55.3247 3.7198C55.9048 4.0356 56.3399 4.47893 56.63 5.04979C56.9201 5.60851 57.0651 6.26439 57.0651 7.01745C57.0651 7.85553 56.8778 8.58429 56.5031 9.20374C56.1284 9.82319 55.5966 10.2787 54.9077 10.5702L57.5002 15.7444H55.2884L52.9316 10.9163H48.6168V15.7444H46.5863ZM48.6168 9.20374H52.9679C53.6205 9.20374 54.1221 9.0094 54.4726 8.62073C54.8352 8.23205 55.0165 7.69155 55.0165 6.99923C55.0165 6.57412 54.9379 6.21581 54.7808 5.9243C54.6237 5.62065 54.394 5.38988 54.0919 5.23198C53.7897 5.07408 53.4151 4.99513 52.9679 4.99513H48.6168V9.20374Z" fill="white"/>
<path d="M38.5312 15.7444V4.99513H34.4158V3.2461H44.7134V4.99513H40.5617V15.7444H38.5312Z" fill="white"/>
<path d="M23.0781 15.7444L27.955 3.24609H30.5475L35.4424 15.7444H33.2669L32.161 12.8475H26.2689L25.163 15.7444H23.0781ZM26.9216 11.1167H31.4902L30.0942 7.4547C30.058 7.34538 30.0036 7.19356 29.9311 6.99922C29.8586 6.80488 29.78 6.59233 29.6954 6.36155C29.6229 6.13078 29.5443 5.9 29.4597 5.66923C29.3872 5.42631 29.3207 5.20768 29.2603 5.01334H29.1515C29.079 5.24412 28.9883 5.5174 28.8796 5.8332C28.7708 6.149 28.662 6.45265 28.5532 6.74416C28.4565 7.03566 28.3719 7.27251 28.2994 7.4547L26.9216 11.1167Z" fill="white"/>
</svg>
