<svg width="40" height="40" viewBox="0 0 40 40" fill="none" xmlns="http://www.w3.org/2000/svg">
<g clip-path="url(#clip0_7346_131804)">
<path d="M37.6575 19.7451C37.6426 20.2457 37.6525 20.7314 37.6129 21.2073C37.5732 21.6881 37.484 22.1689 37.4096 22.6497C37.3452 23.0958 37.3105 23.5468 37.1965 23.983C37.0082 24.6819 36.7653 25.3659 36.5571 26.0598C36.4679 26.3523 36.3688 26.6298 36.4431 26.9669C36.5422 27.413 36.3539 27.8442 36.1804 28.2506C35.9127 28.8801 35.6302 29.5047 35.3279 30.1193C35.194 30.3919 35.0156 30.6447 34.857 30.9024L34.2969 31.7996L34.2027 31.9285C34.054 32.1119 33.945 32.2903 33.9549 32.548C33.9846 33.1974 33.9648 33.8368 33.717 34.4464C33.4543 35.1007 33.1469 35.7203 32.6662 36.2606C32.1953 36.7909 31.655 37.2271 31.0751 37.6187C30.3365 38.1193 29.5286 38.5208 28.681 38.7984C27.8037 39.0858 26.9016 39.3089 26.0044 39.5171C25.5286 39.6311 25.0329 39.6757 24.5472 39.7302C23.9375 39.7996 23.318 39.8343 22.7033 39.9037C21.3105 40.0573 19.9078 39.9731 18.51 39.978C17.9152 39.978 17.3204 39.8839 16.7256 39.8194C16.1754 39.7599 15.6253 39.7054 15.08 39.6063C14.4753 39.5022 13.8756 39.3634 13.2857 39.185C12.5323 38.952 11.7839 38.6893 11.0503 38.4018C10.2077 38.0747 9.39478 37.6732 8.62154 37.2023C8.02179 36.8256 7.4716 36.3746 6.99577 35.8492C6.6835 35.522 6.40097 35.1651 6.14818 34.7884C5.77148 34.1788 5.42947 33.5443 5.2659 32.8355C5.1172 32.1961 5.03294 31.5319 5.15686 30.9024C5.24112 30.4514 5.01312 30.1639 4.87433 29.8269C4.61163 29.1825 4.39354 28.5183 4.22005 27.8392C4.07631 27.294 3.94744 26.7389 3.81361 26.1887C3.79874 26.1143 3.78883 26.0449 3.78883 25.9706C3.76404 25.6335 3.54595 25.3758 3.37247 25.123C2.99081 24.558 2.76281 23.9285 2.52489 23.299C2.28201 22.6199 2.11349 21.9161 2.02922 21.1974C1.96479 20.6967 2.02922 20.1763 2.01435 19.6658C1.96974 18.4712 2.26219 17.3609 2.76281 16.2953C2.85698 16.097 2.9809 15.9136 3.0602 15.7104C3.11968 15.5468 3.15934 15.3783 3.17421 15.2098C3.2436 14.3523 3.43195 13.5245 3.61535 12.6967C3.78883 11.9086 4.04657 11.1552 4.38362 10.4316C4.6265 9.92103 4.90903 9.43032 5.19155 8.94457C5.45921 8.48856 5.74174 8.04742 6.02922 7.61124C6.28697 7.22958 6.55463 6.84792 6.85698 6.496C7.39725 5.85659 7.94248 5.21719 8.53232 4.62239C9.0032 4.15151 9.53356 3.7302 10.0689 3.32375C10.6438 2.89253 11.2436 2.49104 11.8632 2.11929C12.2944 1.86155 12.7603 1.66328 13.2312 1.47493C13.8904 1.21223 14.5497 0.939615 15.2238 0.731437C15.8681 0.538128 16.5373 0.424126 17.1916 0.275427C17.9598 0.111858 18.7479 0.0275952 19.536 0.0275952C20.2349 0.017682 20.9388 -0.0417976 21.6377 -0.00214453C22.3861 0.0424651 23.1246 0.171338 23.8681 0.275427C24.7752 0.404299 25.6575 0.642217 26.5249 0.934659C27.3774 1.22214 28.2151 1.55424 28.9834 2.02016C29.6129 2.40182 30.2027 2.84296 30.8074 3.25932C31.0156 3.40306 31.2287 3.55176 31.4171 3.72028C31.7492 4.0276 32.0664 4.35473 32.3836 4.67196C32.567 4.85535 32.7603 5.02388 32.9289 5.21719C33.3551 5.71781 33.7715 6.22338 34.1878 6.73392C34.3811 6.97679 34.5695 7.21967 34.7232 7.48732C35.0453 8.0276 35.3477 8.58274 35.65 9.13292C35.8731 9.53441 36.1061 9.93094 36.2994 10.3423C36.5026 10.7686 36.6562 11.2147 36.8446 11.6459C36.9685 11.9334 37.1469 12.1961 37.256 12.4836C37.4295 12.9594 37.4493 13.4452 37.2709 13.926C37.251 13.9805 37.2312 14.0549 37.1866 14.0796C36.9933 14.2184 37.0776 14.377 37.1172 14.5456C37.2411 15.1156 37.3551 15.6856 37.4642 16.2556C37.6773 17.3956 37.6277 18.5505 37.6277 19.7203M36.2597 13.8318C36.5373 13.8715 36.7554 13.7327 36.7603 13.465C36.7603 13.242 36.7355 13.0189 36.6662 12.8058C36.6067 12.6273 36.4629 12.4836 36.3886 12.3101C36.1308 11.7252 35.9177 11.1156 35.6302 10.5456C35.2386 9.74755 34.8025 8.97431 34.3613 8.20603C33.9053 7.3981 33.3502 6.64965 32.7157 5.97555C32.1209 5.33119 31.4914 4.71657 30.8372 4.12673C30.1184 3.51706 29.3353 2.99166 28.5026 2.55548C27.6153 2.06973 26.6736 1.68311 25.7021 1.40058C25.1123 1.2271 24.5026 1.11805 23.9028 0.984225C22.9363 0.766133 21.9499 0.657087 20.9586 0.667001C20.1358 0.671957 19.313 0.72648 18.4951 0.795873C17.9598 0.840483 17.4295 0.949528 16.8991 1.0437C16.6265 1.09327 16.3539 1.16266 16.0862 1.24693C15.427 1.44519 14.7529 1.62363 14.1085 1.87146C13.484 2.11434 12.8793 2.39686 12.2894 2.71409C11.7393 3.0214 11.2089 3.36341 10.6984 3.73515C10.2572 4.05238 9.84583 4.41421 9.43443 4.77109C8.67606 5.41545 7.99205 6.13416 7.38238 6.92227C7.02055 7.3981 6.6835 7.88385 6.36627 8.38447C5.95487 9.02884 5.53852 9.6732 5.17668 10.3473C4.73554 11.1949 4.41336 12.097 4.22501 13.0338C4.08623 13.6484 4.00692 14.2779 3.883 14.9024C3.79378 15.3832 3.81857 15.869 3.53108 16.33C3.05029 17.1032 2.84707 17.9954 2.73802 18.8975C2.62898 19.8392 2.66367 20.7959 2.8322 21.7277C3.05029 22.9619 3.49143 24.097 4.19031 25.1329C4.27458 25.2568 4.38362 25.3808 4.42328 25.5146C4.48771 25.7327 4.49763 25.9706 4.53728 26.1936C4.79998 27.6658 5.21634 29.0883 5.91027 30.4167C5.94001 30.4663 5.93009 30.5456 5.92018 30.61C5.88053 30.8033 5.80122 30.9917 5.78139 31.1899C5.70209 31.864 5.86566 32.5084 6.0887 33.1379C6.37123 33.9359 6.81733 34.6199 7.37743 35.2544C8.00692 35.978 8.75537 36.5381 9.60295 36.9644C10.3564 37.3411 11.1346 37.6633 11.9078 37.9954C12.8595 38.4018 13.8607 38.6943 14.8818 38.8677C15.9028 39.0412 16.9289 39.1552 17.9598 39.2445C18.7579 39.3138 19.5658 39.3188 20.3688 39.3238C20.9982 39.3287 21.6327 39.3138 22.2572 39.2643C23.2783 39.18 24.2944 39.0809 25.3056 38.9421C26.4357 38.7785 27.5509 38.491 28.6166 38.0846C29.6575 37.7029 30.629 37.1577 31.5013 36.4687C32.2448 35.869 32.7702 35.1205 33.0924 34.2283C33.2857 33.6881 33.3303 33.123 33.3056 32.548C33.2907 32.2903 33.2907 32.0474 33.4543 31.8046C33.821 31.2742 34.1928 30.7389 34.5001 30.1738C34.8867 29.4601 35.2238 28.7166 35.5559 27.9731C35.7095 27.6212 35.8929 27.2296 35.7046 26.8529C35.6054 26.6447 35.6748 26.5208 35.7343 26.3523C35.9921 25.5741 36.2548 24.7959 36.4778 24.0028C36.6909 23.2197 36.8396 22.4216 36.8842 21.6038C36.9189 20.9198 37.028 20.2407 37.028 19.5617C37.0379 18.6645 36.9933 17.7674 36.8991 16.8752C36.8198 16.1614 36.6265 15.4576 36.4679 14.7587C36.3985 14.4563 36.2895 14.1639 36.2151 13.8516C36.2151 13.8516 36.225 13.8368 36.2597 13.8368" fill="#FDFDFD"/>
<path d="M36.2014 13.8607C36.2906 14.1581 36.3996 14.4555 36.469 14.7579C36.6276 15.4617 36.8209 16.1606 36.9002 16.8743C36.9994 17.7616 37.0291 18.6637 37.0291 19.5608C37.0291 20.2399 36.925 20.919 36.8854 21.603C36.8358 22.4159 36.697 23.2188 36.4789 24.002C36.2608 24.795 35.9932 25.5732 35.7354 26.3514C35.6759 26.5199 35.6066 26.6439 35.7057 26.852C35.894 27.2337 35.7106 27.6203 35.552 27.9722C35.2249 28.7157 34.8829 29.4543 34.4963 30.173C34.189 30.743 33.8172 31.2734 33.4504 31.8037C33.2869 32.0416 33.2869 32.2895 33.3017 32.5472C33.3265 33.1222 33.2819 33.6872 33.0886 34.2275C32.7813 35.1098 32.2311 35.883 31.4975 36.4629C30.6301 37.1519 29.6536 37.6971 28.6128 38.0788C27.5421 38.4852 26.4318 38.7727 25.3017 38.9363C24.2906 39.08 23.2695 39.1742 22.2534 39.2585C21.6239 39.308 20.9994 39.3279 20.3649 39.318C19.5619 39.3279 18.759 39.2981 17.956 39.2387C16.925 39.1594 15.899 39.0305 14.8779 38.8619C13.8569 38.6934 12.8556 38.401 11.904 37.9896C11.1307 37.6575 10.3476 37.3353 9.59912 36.9586C8.75154 36.5373 7.99813 35.9574 7.3736 35.2486C6.8135 34.6339 6.37731 33.9103 6.08983 33.1321C5.86678 32.5026 5.70321 31.8582 5.78252 31.1841C5.80235 30.9859 5.88165 30.8025 5.9213 30.6042C5.93617 30.5447 5.94113 30.4654 5.91139 30.4109C5.21251 29.0825 4.80111 27.66 4.53345 26.1878C4.49379 25.9598 4.48388 25.7269 4.4244 25.5088C4.38475 25.37 4.2757 25.251 4.19144 25.1271C3.50743 24.0962 3.0415 22.9363 2.83332 21.717C2.65984 20.7851 2.62515 19.8285 2.73419 18.8867C2.84324 17.9846 3.05142 17.0924 3.53221 16.3192C3.82465 15.8582 3.78995 15.3725 3.88413 14.8867C4.00309 14.2672 4.08239 13.6377 4.22614 13.023C4.43432 12.0912 4.72676 11.1792 5.17781 10.3365C5.53964 9.66245 5.95104 9.01808 6.3674 8.37372C6.68463 7.86815 7.02168 7.3824 7.38351 6.90656C7.99318 6.11846 8.67719 5.39974 9.43555 4.75538C9.84695 4.40346 10.2584 4.04163 10.6995 3.7244C11.215 3.35761 11.7404 3.00569 12.2906 2.70334C12.8804 2.38116 13.4851 2.09863 14.1146 1.86071C14.759 1.61288 15.4281 1.43444 16.0874 1.23618C16.355 1.15191 16.6276 1.08252 16.9002 1.03295C17.4306 0.938778 17.956 0.829732 18.4963 0.785122C19.3141 0.71573 20.1419 0.661207 20.9597 0.65625C21.951 0.65625 22.9325 0.760339 23.899 0.973474C24.5037 1.1073 25.1134 1.21635 25.7032 1.38983C26.6747 1.67236 27.6165 2.05898 28.5037 2.54473C29.3265 3.00569 30.1295 3.4964 30.8383 4.11598C31.4975 4.6959 32.1072 5.3254 32.7119 5.9648C33.3513 6.6389 33.9015 7.3824 34.3624 8.19528C34.7986 8.96356 35.2348 9.74175 35.6313 10.5348C35.9188 11.1098 36.132 11.7145 36.3897 12.2994C36.469 12.4729 36.6128 12.6216 36.6673 12.795C36.7367 13.0032 36.7615 13.2362 36.7615 13.4543C36.7565 13.7219 36.5434 13.8657 36.236 13.8161C36.2014 13.8161 36.1914 13.8211 36.1766 13.826L36.2014 13.8458V13.8607ZM8.82589 33.5088C8.82589 33.5088 8.85563 33.5385 8.87546 33.5683C9.10346 33.7616 9.3166 33.9747 9.56443 34.1482C10.1245 34.5348 10.6945 34.9214 11.2794 35.2734C11.6363 35.4865 12.0328 35.6302 12.4244 35.8335C13.3017 36.2052 14.2137 36.4828 15.1505 36.6612C16.2757 36.8942 17.4157 37.0429 18.5607 37.0528C19.8346 37.0528 21.1134 37.0131 22.3823 36.9487C22.9622 36.919 23.5421 36.8446 24.1171 36.7356C25.0093 36.5918 25.8866 36.3638 26.7342 36.0515C27.3934 35.7938 28.0576 35.546 28.702 35.2585C29.1382 35.0652 29.5545 34.8223 29.956 34.5646C30.4665 34.2424 30.9919 33.9202 31.4331 33.5187C32.008 32.9933 32.5384 32.4134 33.0242 31.8037C33.723 30.9512 34.298 30.0045 34.7391 28.9933L34.7243 28.9437C34.7243 28.9437 34.6797 28.9784 34.6499 28.9883C34.4913 29.0627 34.3178 29.1172 34.1691 29.2064C33.2869 29.7566 32.3699 30.2424 31.4232 30.6587C30.0155 31.2882 28.5632 31.8186 27.0762 32.2498C26.4418 32.4233 25.7974 32.5472 25.1431 32.6216C24.2014 32.7256 23.2546 32.7752 22.3079 32.8347C22.0105 32.8545 21.7082 32.8347 21.3662 32.8149C20.2807 32.7653 19.21 32.5819 18.1691 32.2795C17.4455 32.0714 16.7466 31.7789 16.0378 31.5261C15.0217 31.1593 14.0997 30.6141 13.1976 30.0342C12.4988 29.5831 11.8246 29.1073 11.1654 28.6017C10.5012 28.0912 9.83208 27.5757 9.29677 26.9413C8.98946 27.0553 8.6871 27.2089 8.36988 27.2783C7.51734 27.4667 6.71932 27.2783 5.97087 26.852C5.75278 26.7281 5.5446 26.5893 5.33147 26.4605V26.4357L4.9052 26.0392C4.94485 26.4159 5.01424 26.7777 5.10842 27.1247C5.30173 27.7988 5.48512 28.4778 5.71808 29.137C5.96591 29.831 6.27818 30.5001 6.72428 31.085C7.21003 31.7294 7.72552 32.344 8.24101 32.9586C8.37979 33.1222 8.55327 33.256 8.71684 33.3948C8.71684 33.3948 8.71189 33.3948 8.71684 33.4196L8.7565 33.4344V33.4592C8.7565 33.4592 8.78128 33.4691 8.79615 33.4741V33.5038L8.82589 33.5088ZM8.54336 35.8235C8.54336 35.8235 8.5731 35.8384 8.60284 35.8582C8.89528 36.0515 9.1679 36.2795 9.47521 36.4332C10.1592 36.7752 10.8432 37.1073 11.5471 37.3948C12.2757 37.6872 13.0242 37.94 13.7776 38.1631C14.6747 38.4307 15.6066 38.5943 16.5434 38.6835C17.5694 38.7826 18.5954 38.857 19.6214 38.9066C20.1914 38.9313 20.7615 38.8867 21.3612 38.8867C21.6041 38.8768 21.842 38.862 22.0799 38.8471C22.8631 38.7826 23.6512 38.7331 24.4343 38.6389C25.0589 38.5646 25.6784 38.4506 26.2931 38.3266C26.8482 38.2077 27.4033 38.0838 27.9387 37.9004C28.7763 37.6129 29.5892 37.261 30.3426 36.795C30.9969 36.3886 31.5966 35.9128 32.0774 35.3031C32.4442 34.8421 32.6574 34.3019 32.8209 33.7418C32.93 33.3601 32.9448 32.9685 32.925 32.5274L32.7714 32.6909C32.3104 33.1321 31.8643 33.5881 31.3885 34.0144C30.7144 34.5745 29.9709 35.0503 29.1778 35.427C28.0229 36.002 26.8383 36.5026 25.5793 36.795C24.7317 36.9883 23.8742 37.1519 23.0118 37.2758C22.3426 37.365 21.6735 37.4196 21.0043 37.4493C20.4988 37.4741 19.9932 37.4691 19.4826 37.4642C18.868 37.4543 18.2584 37.4344 17.6437 37.4047C17.3017 37.37 16.9597 37.3452 16.6227 37.2907C15.9238 37.1817 15.2249 37.0825 14.531 36.9338C13.6189 36.7306 12.7317 36.4282 11.8792 36.0367C10.8581 35.5707 9.90643 34.966 9.05389 34.2424C8.08239 33.3948 7.21003 32.4332 6.46653 31.3824L6.20383 31.0007C6.11461 31.4468 6.15427 31.8681 6.23357 32.2895C6.38227 33.0825 6.71932 33.8012 7.18524 34.4506C7.49751 34.8917 7.92874 35.2535 8.30544 35.6451C8.3451 35.6848 8.41449 35.7046 8.46901 35.7244C8.46901 35.7244 8.4591 35.7244 8.44423 35.7492C8.46901 35.769 8.48884 35.7839 8.51362 35.7988V35.8235H8.54336ZM8.11709 26.7529C8.17161 26.7331 8.22614 26.7182 8.28562 26.7133C9.1332 26.5348 9.73791 26.0045 10.2038 25.3155C10.9077 24.2746 11.1852 23.085 11.2249 21.8508C11.2695 20.5869 11.0465 19.3279 10.5657 18.1581C10.075 16.9883 9.40086 15.9574 8.30544 15.2634C7.78004 14.9066 7.15055 14.7331 6.52106 14.7777C6.42192 14.7926 6.32279 14.8025 6.22366 14.8074C5.21251 15.0106 4.52353 15.6451 4.00805 16.5224L3.98326 16.567C3.98326 16.567 3.98326 16.5819 3.95352 16.6017L3.93865 16.7009C3.93865 16.7009 3.93865 16.6959 3.90891 16.7108C3.83952 16.8595 3.76517 17.0032 3.69082 17.147C3.55699 17.6129 3.38351 18.0689 3.29925 18.5447C3.11585 19.5707 3.12577 20.6216 3.31907 21.6426C3.4876 22.5546 3.77508 23.422 4.24101 24.2597C4.29553 24.3539 4.34014 24.453 4.40458 24.5422C4.6078 24.8149 4.82093 25.0776 5.05389 25.37C5.08859 25.4245 5.11337 25.4939 5.15798 25.5336C5.56938 25.9053 5.97087 26.287 6.49627 26.5051C6.9275 26.6885 7.36864 26.8124 7.87917 26.7678C7.95352 26.7628 8.02291 26.7529 8.127 26.7529M17.267 31.6302C17.267 31.6302 17.3216 31.6501 17.3662 31.6748C17.6041 31.7442 17.837 31.8335 18.075 31.888C18.9126 32.0664 19.7503 32.2696 20.5929 32.3886C21.6586 32.5175 22.7342 32.5323 23.8048 32.4233C24.3897 32.3787 24.9696 32.2845 25.5545 32.1953C26.6995 32.0268 27.8197 31.7343 28.9002 31.3229C29.7429 30.9958 30.5756 30.6488 31.4033 30.287C32.0378 30.0144 32.6623 29.717 33.2769 29.3997C33.7429 29.1569 34.1741 28.8545 34.6351 28.5968C35.21 28.2746 35.443 27.7393 35.5372 27.1296C35.5719 26.8917 35.4182 26.7975 35.2051 26.8966C35.1456 26.9214 35.096 26.9512 35.0465 26.9908C34.754 27.2139 34.4665 27.4518 34.1642 27.655C33.5793 28.0466 33.0043 28.458 32.3897 28.8C31.6561 29.2114 30.8878 29.5683 30.1295 29.9351C29.7478 30.1284 29.3513 30.2969 28.9498 30.4357C27.8445 30.7926 26.7094 31.0503 25.5595 31.2089C24.3203 31.3874 23.0613 31.4171 21.8123 31.2932C21.1084 31.2287 20.4046 31.0949 19.7057 30.9809C18.7788 30.8223 17.8916 30.51 17.0093 30.1829C16.5087 29.9995 16.013 29.8012 15.5273 29.5831C14.9919 29.3502 14.4665 29.0924 13.956 28.8149C13.0242 28.2944 12.1419 27.6848 11.324 26.9908C10.9721 26.7033 10.645 26.3861 10.2931 26.0689C10.2385 26.1284 10.184 26.1878 10.1295 26.2473L9.5446 26.7826C9.74287 26.971 9.93122 27.1643 10.1394 27.3328C10.6846 27.7988 11.2299 28.2696 11.7999 28.7058C12.355 29.1271 12.925 29.5385 13.5297 29.8954C14.2336 30.3068 14.9672 30.6637 15.7057 31.0057C16.2063 31.2387 16.7367 31.4121 17.272 31.6302M19.8742 9.36009L20.0527 9.33035C20.6326 9.25105 21.2125 9.15191 21.7974 9.10235C22.4517 9.04782 23.1059 9.03295 23.7602 9.00817C24.8804 8.96356 25.9957 9.01808 27.1059 9.19652C28.5037 9.42453 29.8172 9.89045 31.101 10.4406C31.9387 10.7975 32.7515 11.2337 33.5545 11.6748C34.189 12.0268 34.7986 12.4282 35.3984 12.8248C35.7503 13.0577 36.0774 13.3254 36.4244 13.5881C36.5533 13.137 36.3501 12.7703 36.0873 12.5125C35.7007 12.1655 35.2794 11.8533 34.8284 11.5906C34.1691 11.1693 33.5 10.7628 32.811 10.3911C32.0774 9.98463 31.3191 9.62279 30.5409 9.29566C29.842 9.00817 29.1035 8.81982 28.3748 8.60173C28.0378 8.50259 27.6958 8.42825 27.3488 8.37372C26.8036 8.29442 26.2584 8.22998 25.7082 8.18041C24.6821 8.08624 23.6512 8.06641 22.6202 8.12093C21.8965 8.1705 21.1729 8.22502 20.4541 8.32911C19.7652 8.42329 19.0812 8.57199 18.4021 8.71573C18.0601 8.78512 17.723 8.89913 17.3562 8.9933L15.6413 9.49392C14.6301 9.79132 13.7082 10.2919 12.7615 10.7479C12.3054 10.966 11.8792 11.2387 11.443 11.5014C10.9176 11.8186 10.3823 12.1308 9.88661 12.4877C9.2819 12.919 8.70197 13.3948 8.12205 13.8607C7.95352 13.9995 7.81969 14.1829 7.67595 14.3465C7.85439 14.4258 8.0477 14.5001 8.22614 14.5992C8.3451 14.6637 8.4244 14.6439 8.52353 14.5745C9.07372 14.173 9.60904 13.7517 10.179 13.3948C11.0217 12.8644 11.8792 12.3638 12.7565 11.888C13.3166 11.5807 13.9114 11.3328 14.4913 11.0701C15.0118 10.8322 15.5273 10.5844 16.0626 10.3861C16.7416 10.1432 17.4306 9.9301 18.1245 9.74175C18.6797 9.5881 19.2546 9.48896 19.8246 9.36505L19.8643 9.35514L19.8742 9.36009ZM4.81102 14.7777C4.81102 14.7777 4.81102 14.7826 4.84076 14.7777C5.55451 14.2622 6.45166 14.0788 7.31412 14.2622C7.58673 13.9797 7.81969 13.6773 8.11213 13.4444C8.78128 12.914 9.46034 12.3935 10.1691 11.9177C10.8978 11.4221 11.6561 10.971 12.4393 10.5596C13.3562 10.0887 14.3079 9.67732 15.2646 9.28574C15.7999 9.06765 16.3649 8.91399 16.93 8.7653C17.728 8.55216 18.531 8.32911 19.3389 8.18041C20.2559 8.01189 21.1877 7.92267 22.1444 7.80371C22.2336 7.7938 22.3277 7.78388 22.4467 7.77893L22.6351 7.76406C23.1208 7.76406 23.6115 7.75414 24.0973 7.77397C24.9052 7.80371 25.7181 7.83841 26.526 7.90284C26.9721 7.93754 27.4133 8.04163 27.8544 8.1358C28.2707 8.22007 28.6871 8.29937 29.0935 8.42825C29.7379 8.63147 30.3773 8.85452 31.0068 9.10235C31.4727 9.28574 31.9287 9.49392 32.3699 9.73184C32.8655 9.98463 33.3463 10.2572 33.8222 10.5447C34.5012 10.9611 35.1654 11.3923 35.8296 11.8136C35.8197 11.7789 35.8197 11.7194 35.7949 11.6649C35.5322 11.0949 35.2992 10.515 34.9919 9.96976C34.531 9.16678 34.0403 8.38364 33.5198 7.62031C33.158 7.11474 32.7664 6.62899 32.3501 6.16802C31.9783 5.73184 31.5719 5.32044 31.1456 4.93382C30.5558 4.42329 29.9362 3.94745 29.2918 3.50631C27.8593 2.52986 26.2435 1.85575 24.5384 1.51375C23.3835 1.24609 22.2038 1.09243 21.0192 1.05774C20.3848 1.05278 19.7553 1.09739 19.1208 1.12713C18.0303 1.19652 16.9548 1.37992 15.899 1.67236C14.6945 1.99454 13.5297 2.46046 12.4343 3.06022C11.2497 3.7244 10.1592 4.54225 9.19268 5.49888C8.40458 6.25229 7.69578 7.08004 7.07124 7.97719C6.42192 8.92391 5.79243 9.88054 5.3166 10.9264C5.15303 11.2734 5.0192 11.6352 4.91015 12.002C4.71189 12.7504 4.52849 13.4989 4.36492 14.2523C4.28562 14.5943 4.25588 14.9462 4.20135 15.2882L4.26579 15.3279C4.42936 15.1544 4.58797 14.9859 4.78128 14.8223L4.81102 14.7777ZM31.4777 28.9784C31.899 28.7455 32.3302 28.5323 32.7367 28.2795C33.2571 27.9623 33.7577 27.6154 34.2584 27.2734C34.5855 27.0503 34.9126 26.8173 35.2299 26.5794C35.2943 26.5348 35.3439 26.4654 35.3686 26.3911C35.443 26.1581 35.5124 25.9202 35.5768 25.6823C35.7453 25.1073 35.9387 24.5422 36.0725 23.9623C36.3798 22.5893 36.5731 21.1916 36.6524 19.7888C36.6772 19.2833 36.6425 18.7678 36.6177 18.2572C36.588 17.6674 36.5781 17.0726 36.4789 16.4927C36.3401 15.655 36.132 14.8273 35.9337 13.9995C35.8891 13.8062 35.8147 13.5683 35.676 13.4642C35.0118 12.9784 34.3426 12.4877 33.6289 12.0862C32.7218 11.5906 31.7949 11.1296 30.8482 10.7083C30.3724 10.5001 29.8817 10.3217 29.381 10.173C28.7664 9.97967 28.1518 9.77149 27.5223 9.64262C26.8779 9.50383 26.2237 9.41957 25.5644 9.38983C24.6623 9.36505 23.7553 9.37992 22.8532 9.42453C21.2224 9.48896 19.5966 9.73184 18.0204 10.1482C17.2819 10.3465 16.5632 10.5893 15.8544 10.8768C15.0365 11.2089 14.2336 11.5658 13.4455 11.9524C12.8903 12.225 12.3501 12.5224 11.8247 12.8496C11.0217 13.3403 10.2385 13.8607 9.45538 14.3861C9.22242 14.5398 9.0192 14.7281 8.77632 14.9165C9.35625 15.3427 9.81721 15.8335 10.2038 16.3886C10.759 17.1965 11.1406 18.0838 11.3934 19.0255C11.6363 19.9326 11.7602 20.8595 11.7354 21.8012C11.7255 22.1085 11.6908 22.4159 11.6561 22.7232C11.5818 23.4518 11.3835 24.1556 11.0712 24.8198C10.9027 25.1519 10.7292 25.489 10.5458 25.831C10.9126 26.168 11.2695 26.5199 11.6561 26.8372C11.9833 27.1048 12.3451 27.3378 12.6772 27.5955C13.3959 28.1507 14.189 28.5869 15.0019 28.9735C15.7949 29.3502 16.6227 29.6525 17.4504 29.9598C18.0006 30.1631 18.5558 30.3415 19.1159 30.4902C19.671 30.6339 20.2261 30.7479 20.7912 30.8273C21.5644 30.9313 22.3426 31.0255 23.1258 31.0602C23.6958 31.085 24.2658 31.0404 24.8358 30.9809C25.4802 30.9115 26.1196 30.7926 26.7639 30.6934C27.7057 30.5398 28.6276 30.2721 29.5049 29.9004C30.1691 29.6278 30.8135 29.2907 31.4876 28.9685" fill="#080A0A"/>
<path d="M31.468 28.9945C30.8039 29.3068 30.1644 29.6438 29.5003 29.9164C28.618 30.2783 27.706 30.5657 26.7543 30.7095C26.1149 30.8086 25.4755 30.9276 24.8262 30.997C24.2611 31.0664 23.6861 31.0911 23.1161 31.0763C22.3379 31.0416 21.5597 30.9474 20.7815 30.8433C20.2165 30.764 19.6564 30.65 19.1062 30.5063C18.5411 30.3576 17.986 30.1791 17.4408 29.9759C16.618 29.6686 15.7853 29.3662 14.9922 28.9895C14.1744 28.6128 13.3962 28.1519 12.6725 27.6116C12.3354 27.3538 11.9736 27.1209 11.6514 26.8532C11.2648 26.531 10.9079 26.1791 10.5411 25.847C10.7196 25.5001 10.898 25.1729 11.0616 24.8359C11.3838 24.1766 11.5672 23.4678 11.6465 22.7392C11.6812 22.4319 11.7208 22.1246 11.7258 21.8173C11.7456 20.8805 11.6316 19.9486 11.3838 19.0416C11.1409 18.0998 10.7345 17.2076 10.1892 16.4046C9.80261 15.8346 9.32182 15.339 8.76172 14.9325C8.99964 14.7442 9.20782 14.5558 9.44078 14.4022C10.2239 13.8817 11.0071 13.3613 11.81 12.8656C12.3354 12.5385 12.8757 12.2361 13.4309 11.9685C14.2239 11.5868 15.0269 11.22 15.8447 10.8929C16.5486 10.6153 17.2723 10.3526 18.0108 10.1642C18.8633 9.95111 19.7208 9.77763 20.5882 9.64876C21.3367 9.53476 22.0901 9.47528 22.8435 9.44058C23.7456 9.39101 24.6477 9.37614 25.5548 9.40588C26.2091 9.43067 26.8683 9.52484 27.5126 9.65867C28.1421 9.78754 28.7568 9.99077 29.3714 10.189C29.867 10.3427 30.3677 10.5063 30.8385 10.7243C31.7803 11.1605 32.7221 11.5967 33.6192 12.1023C34.333 12.5087 35.0021 12.9945 35.6663 13.4802C35.81 13.5843 35.8794 13.8272 35.929 14.0205C36.1273 14.8483 36.3305 15.676 36.4742 16.5087C36.5684 17.0887 36.5783 17.6835 36.6081 18.2783C36.6378 18.7888 36.6725 19.2993 36.6428 19.8098C36.5635 21.2126 36.3701 22.6103 36.0628 23.9833C35.929 24.5633 35.7357 25.1283 35.5672 25.7033C35.5027 25.9412 35.4333 26.1742 35.359 26.4121C35.3342 26.4864 35.2846 26.5509 35.2202 26.6004C34.898 26.8384 34.5758 27.0664 34.2487 27.2944C33.7431 27.6364 33.2425 27.9833 32.7221 28.3055C32.3156 28.5583 31.8844 28.7714 31.4482 29.0094M33.5895 16.4146L33.7679 16.3204C32.6229 16.1221 32.0034 15.4133 31.7258 14.3377C31.7456 15.4678 31.2896 16.2906 30.2537 16.7913C31.3838 16.9994 32.0133 17.6785 32.2661 18.7491C32.3107 18.2733 32.3404 17.8123 32.5783 17.4009C32.8063 16.9747 33.1583 16.6277 33.5895 16.4096M34.67 17.5496L34.3726 18.1841C34.4965 18.3328 34.6601 18.4815 34.7592 18.6599C34.8633 18.8433 34.9079 19.0564 34.9773 19.2547H35.0467C35.0219 18.8037 35.0765 18.3724 35.4433 18.0453C35.0021 17.8074 34.8732 17.396 34.7692 16.9647L34.7097 16.9895C34.6948 17.163 34.6849 17.3414 34.6651 17.5496M33.4408 14.4468C33.7778 14.645 33.7977 15.0217 33.9265 15.3489C33.9414 14.9474 33.9017 14.5459 34.3032 14.2535C33.8373 14.08 33.7977 13.6686 33.6936 13.282C33.6688 13.3167 33.6539 13.3613 33.649 13.4059C33.6688 13.7479 33.6787 14.0899 33.3714 14.3377C33.3615 14.3427 33.4011 14.4022 33.4457 14.4468" fill="#14161F"/>
<path d="M22.1168 7.78959C21.1949 7.9135 20.2631 8.00272 19.3461 8.16629C18.5332 8.31499 17.7352 8.53804 16.9372 8.75117C16.3771 8.89987 15.8071 9.04857 15.2717 9.27162C14.3201 9.66319 13.3684 10.0796 12.4465 10.5504C11.6633 10.9618 10.905 11.4129 10.1763 11.9085C9.46753 12.3844 8.78847 12.9048 8.11933 13.4401C7.82689 13.6731 7.59392 13.9755 7.32131 14.258C6.43407 14.0696 5.60632 14.2629 4.82812 14.7537C4.92726 14.2332 5.0363 13.7177 5.18005 13.2171C5.62119 11.7004 6.26059 10.2729 7.18252 8.98414C7.78228 8.14646 8.41177 7.32366 9.17509 6.62478C9.95328 5.91103 10.7513 5.2171 11.5642 4.55291C12.3275 3.92342 13.1999 3.46245 14.1069 3.08079C14.8703 2.76852 15.6435 2.49095 16.4316 2.25303C17.1354 2.03494 17.8541 1.88129 18.5679 1.70285C18.7017 1.66815 18.8207 1.68798 18.9198 1.80694C19.0883 1.99529 19.2767 2.16877 19.4502 2.35712C19.9359 2.90235 20.3919 3.46741 20.7389 4.11177C20.9818 4.55787 21.2296 4.99901 21.4279 5.46493C21.6311 5.93581 21.7798 6.43147 21.9285 6.92218C22.0128 7.19975 22.0574 7.49715 22.1168 7.78959Z" fill="#069871"/>
<path d="M22.1302 7.79818C22.0509 7.50574 22.0112 7.2133 21.927 6.93077C21.7783 6.44007 21.6246 5.94441 21.4264 5.47848C21.2281 5.01256 20.9803 4.57142 20.7374 4.12037C20.3805 3.48592 19.9493 2.89608 19.4487 2.36572C19.2752 2.17737 19.0868 2.00388 18.9183 1.81553C18.8192 1.70153 18.7002 1.6817 18.5664 1.71144C17.8526 1.89484 17.1339 2.04354 16.4301 2.26163C15.642 2.49955 14.8638 2.77712 14.1054 3.09434C13.1984 3.47105 12.326 3.93201 11.5627 4.56151C10.7448 5.23065 9.95176 5.92458 9.17357 6.63338C8.41025 7.33226 7.78076 8.15011 7.18101 8.99273C6.27395 10.2765 5.59984 11.709 5.17853 13.2257C5.03479 13.7263 4.92574 14.2368 4.81174 14.7622C4.8167 14.7771 4.81174 14.7821 4.80183 14.7771C4.782 14.787 4.76713 14.8019 4.75722 14.8168L4.27147 15.3273L4.20703 15.2877C4.26155 14.9407 4.29625 14.5888 4.3706 14.2517C4.53417 13.4983 4.71756 12.7449 4.91583 11.9964C5.01496 11.6297 5.16366 11.2728 5.32227 10.9209C5.79811 9.87006 6.42264 8.91343 7.07692 7.96671C7.70146 7.0646 8.41025 6.24676 9.19836 5.4884C10.1798 4.54664 11.2405 3.69905 12.44 3.04973C13.5404 2.45494 14.6953 1.9791 15.9047 1.66188C16.9555 1.37439 18.036 1.191 19.1265 1.11665C19.7609 1.08691 20.3904 1.0423 21.0249 1.04726C22.2145 1.05717 23.3793 1.25543 24.5441 1.50327C25.585 1.7164 26.6011 2.05345 27.5676 2.5045C28.1624 2.79199 28.7473 3.11913 29.2975 3.49087C29.9419 3.93697 30.5614 4.41281 31.1513 4.91838C31.5875 5.29013 31.9741 5.72136 32.3557 6.15258C32.7671 6.61851 33.1785 7.08939 33.5255 7.60488C34.0459 8.3682 34.5366 9.15135 34.9976 9.95432C35.3049 10.4946 35.5379 11.0795 35.8006 11.6445C35.8254 11.6941 35.8303 11.7635 35.8353 11.7932C35.1711 11.3719 34.5069 10.9407 33.8279 10.5293C33.352 10.2418 32.8712 9.96919 32.3756 9.7164C31.9295 9.48344 31.4784 9.27526 31.0125 9.08691C30.383 8.84403 29.7436 8.62099 29.0992 8.41281C28.6928 8.28393 28.2764 8.20463 27.8601 8.12037C27.4189 8.03115 26.9778 7.92706 26.5317 7.8874C25.7238 7.82297 24.9158 7.78331 24.1029 7.75853C23.6172 7.73871 23.1265 7.75357 22.616 7.73375C22.5912 7.69905 22.5713 7.6594 22.5664 7.61975C22.3334 6.19224 21.7733 4.8936 21.0546 3.65444C20.7076 3.05469 20.2913 2.49459 19.8155 1.98901C19.6717 1.8304 19.528 1.67179 19.3892 1.50822L19.3148 1.56274C19.3644 1.65196 19.4189 1.74118 19.4735 1.82049C19.8105 2.28146 20.1674 2.72755 20.4846 3.19843C20.901 3.81305 21.2578 4.46237 21.5602 5.14639C21.9369 5.99397 22.2145 6.86634 22.4226 7.76349L22.1302 7.79323V7.79818Z" fill="#FDFEFE"/>
<path d="M5.35547 26.4581C5.5686 26.5919 5.77678 26.7307 5.98992 26.8546C6.73837 27.2809 7.54134 27.4692 8.38893 27.2809C8.70615 27.2115 9.00355 27.0578 9.31582 26.9438C9.85113 27.5783 10.5153 28.0938 11.1845 28.6043C11.8387 29.1148 12.5178 29.5907 13.2167 30.0368C14.1138 30.6167 15.0407 31.157 16.0568 31.5238C16.7656 31.7765 17.4695 32.069 18.1882 32.2772C19.2291 32.5795 20.2997 32.7679 21.3951 32.8323C20.7706 33.3676 20.0965 33.8385 19.353 34.1805C18.6987 34.4829 18.0444 34.7902 17.3654 35.0231C16.7012 35.2511 16.0023 35.4048 15.3183 35.5684C14.664 35.7418 13.9949 35.8261 13.3158 35.8261C13.0135 35.8212 12.7111 35.8063 12.4088 35.7914C12.032 35.6179 11.6355 35.4742 11.2786 35.2611C10.6938 34.9042 10.1237 34.5275 9.56365 34.1359C9.31582 33.9624 9.10268 33.7542 8.86972 33.5312C8.84989 33.4915 8.83502 33.4816 8.82511 33.4668V33.4568C8.82511 33.4568 8.79537 33.4321 8.78546 33.4321V33.4172C8.78546 33.4172 8.76067 33.3924 8.7458 33.3875V33.3726C8.60206 33.1495 8.44345 32.9314 8.28484 32.7133C7.70491 31.9302 7.25386 31.0628 6.81272 30.2003C6.32201 29.2387 5.90565 28.2425 5.56365 27.2214C5.47938 26.9686 5.42486 26.7109 5.35547 26.4531" fill="#069871"/>
<path d="M12.4219 35.8154C12.7143 35.8154 13.0167 35.8302 13.319 35.8352C13.9981 35.8501 14.6623 35.7311 15.3215 35.5774C16.0105 35.4139 16.7044 35.2652 17.3686 35.0322C18.0476 34.7993 18.7019 34.487 19.3562 34.1896C20.1047 33.8476 20.7738 33.3767 21.4182 32.8463C21.7255 32.8364 22.0278 32.8563 22.3302 32.8364C23.2719 32.772 24.2187 32.7274 25.1604 32.6233C25.8147 32.5489 26.459 32.425 27.0935 32.2515C28.5755 31.8203 30.0278 31.29 31.4405 30.6605C32.3872 30.2441 33.3042 29.7584 34.1864 29.2131C34.3351 29.1239 34.5086 29.0694 34.692 29C34.7218 29.0099 34.7317 29.0198 34.7366 29.0248C34.3054 30.0359 33.7255 30.9579 33.0415 31.8104C32.5557 32.4201 32.0204 32.995 31.4504 33.5254C31.0092 33.9318 30.4789 34.2491 29.9683 34.5713C29.5669 34.834 29.1505 35.0669 28.7143 35.2652C28.07 35.5527 27.4008 35.8005 26.7465 36.0582C25.899 36.3903 25.0167 36.5787 24.1294 36.7423C23.5545 36.8463 22.9745 36.9257 22.3946 36.9504C21.1208 37.0149 19.8469 37.0694 18.5731 37.0595C17.4281 37.0397 16.288 36.9058 15.1629 36.6729C14.2211 36.4944 13.3042 36.2119 12.4268 35.8302" fill="#FEFEFE"/>
<path d="M17.707 37.4185C18.3117 37.4334 18.9115 37.4581 19.5162 37.4681C20.0267 37.473 20.5323 37.4829 21.0428 37.4532C21.712 37.4185 22.3861 37.3739 23.0503 37.2797C23.9127 37.1558 24.7702 36.9922 25.6178 36.7989C26.8768 36.5065 28.0614 36.0059 29.2163 35.4309C30.0044 35.0393 30.7628 34.6031 31.427 34.0133C31.9028 33.592 32.3489 33.136 32.8049 32.6948C32.8495 32.6552 32.8842 32.6106 32.9586 32.5312C32.9735 32.9724 32.9635 33.359 32.8495 33.7456C32.7058 34.3107 32.453 34.841 32.106 35.307C31.6153 35.8968 31.0305 36.4024 30.3712 36.7989C29.6129 37.2599 28.8049 37.6316 27.9673 37.9042C27.4319 38.0876 26.8768 38.2165 26.3217 38.3305C25.707 38.4594 25.0875 38.5635 24.4629 38.6428C23.6847 38.737 22.8966 38.7865 22.1135 38.851C21.8607 38.8708 21.6129 38.8807 21.3601 38.8757C20.5967 38.6279 19.8632 38.4098 19.1345 38.1669C18.624 37.9984 18.1432 37.7506 17.7169 37.4234" fill="#FDFDFD"/>
<path d="M10.1641 26.2417L10.3028 26.0781C10.6548 26.3953 10.9819 26.7126 11.3338 27.0001C12.5978 28.0657 14.0154 28.9431 15.537 29.5874C16.0228 29.8055 16.5185 30.0038 17.0191 30.1872C17.9014 30.5094 18.7886 30.8266 19.7155 30.9852C20.4144 31.1041 21.1182 31.238 21.8221 31.3024C23.0711 31.4115 24.3252 31.4015 25.5693 31.2132C26.7192 31.0546 27.8543 30.7968 28.9596 30.44C29.366 30.2962 29.7626 30.1277 30.1442 29.9393C30.9026 29.5725 31.6709 29.2157 32.4045 28.8043C33.0141 28.4573 33.5941 28.0509 34.1789 27.6593C34.4813 27.4511 34.7688 27.2181 35.0612 26.9951C35.1108 26.9604 35.1653 26.9257 35.2198 26.9059C35.433 26.8067 35.5866 26.9009 35.5519 27.1388C35.4577 27.7535 35.2248 28.2838 34.6498 28.611C34.1888 28.8687 33.7576 29.1661 33.2917 29.4139C32.6771 29.7312 32.0525 30.0286 31.4181 30.3061C30.5903 30.668 29.7576 31.0149 28.915 31.3421C27.8344 31.7535 26.7192 32.0459 25.5693 32.2144C24.9844 32.3037 24.4045 32.3978 23.8196 32.4424C22.7489 32.5515 21.6734 32.5366 20.6077 32.4077C19.7601 32.2888 18.9274 32.0856 18.0897 31.9071C17.8419 31.8476 17.604 31.7634 17.371 31.6692L17.2669 31.5056V31.4908C17.1182 31.2082 16.9299 30.9505 16.7068 30.7225C16.7514 30.9158 16.7812 31.0447 16.796 31.1735C16.5879 30.9059 16.3945 30.6382 16.1963 30.3805C16.1269 30.2813 16.0377 30.202 15.9336 30.1475C15.3834 29.8848 14.8084 29.6667 14.2731 29.3743C13.6139 29.0124 12.9844 28.5961 12.345 28.1996C11.656 27.7683 11.0364 27.233 10.511 26.6184C10.4069 26.4945 10.288 26.3805 10.1789 26.2615" fill="#FBFCFC"/>
<path d="M17.6975 37.4186C18.1436 37.7507 18.6194 37.9936 19.13 38.1671C19.8586 38.4149 20.5922 38.633 21.3406 38.8709C20.7855 38.8957 20.2155 38.9403 19.6454 38.9155C18.6145 38.861 17.5884 38.7867 16.5674 38.6925C15.6306 38.6132 14.7037 38.4397 13.8016 38.172C13.0482 37.949 12.2997 37.6913 11.5711 37.3988C10.8673 37.1064 10.1733 36.7892 9.49922 36.4372C9.19191 36.2836 8.91434 36.0556 8.61198 35.8424C8.5872 35.8176 8.56737 35.8077 8.56242 35.8077V35.7929C8.5525 35.7631 8.53268 35.7433 8.51285 35.7284C8.51285 35.7284 8.51781 35.7284 8.52276 35.7136C8.45833 35.6095 8.38894 35.5153 8.32946 35.4162C7.97258 34.8214 7.60579 34.2315 7.27369 33.6219C6.9069 32.9329 6.65412 32.1844 6.53516 31.4062C7.29848 32.4422 8.12623 33.4186 9.1126 34.2464C9.9701 34.9701 10.9069 35.5797 11.9379 36.0407C12.7954 36.4224 13.6727 36.7495 14.5897 36.9378C15.2787 37.0816 15.9775 37.1857 16.6764 37.2947C17.0184 37.3443 17.3604 37.3691 17.7124 37.4137" fill="#069871"/>
<path d="M6.75797 14.782C7.32798 14.7671 7.83852 14.9704 8.3094 15.2628C9.40481 15.9617 10.0789 16.9877 10.5696 18.1575C11.0603 19.3372 11.2735 20.5763 11.2338 21.8502C11.1942 23.0794 10.9166 24.274 10.2127 25.3149C9.74682 26.0038 9.14211 26.5342 8.2747 26.6978C7.94756 26.4648 7.69478 26.2021 7.58573 25.8254C8.26479 25.637 8.69106 25.1711 9.03802 24.611C9.47421 23.9022 9.64273 23.1092 9.73691 22.2963C9.78152 21.9096 9.76665 21.5181 9.75673 21.1265C9.74186 20.3384 9.58325 19.5602 9.28585 18.8316C9.06776 18.2814 8.8001 17.756 8.48784 17.2603C8.10618 16.6804 7.60556 16.1996 6.91658 15.9914C6.69354 15.922 6.45066 15.9072 6.22266 15.8477C6.32179 15.4363 6.42092 15.0497 6.76293 14.782" fill="#FCFCFC"/>
<path d="M17.3945 9.0001C17.7365 8.90592 18.0686 8.79688 18.4106 8.72253C19.0947 8.57879 19.7737 8.43009 20.4627 8.33591C21.1814 8.23678 21.9051 8.18226 22.6287 8.13269C23.6597 8.06825 24.6907 8.08312 25.7167 8.18226C26.2669 8.23182 26.8121 8.29626 27.3574 8.38052C27.7043 8.43009 28.0463 8.50939 28.3834 8.60853C29.107 8.82166 29.8456 9.01993 30.5494 9.30245C31.3276 9.61968 32.081 10.0013 32.8196 10.3979C33.5085 10.7647 34.1777 11.1761 34.8369 11.5974C35.2731 11.8749 35.7241 12.1575 36.0909 12.5193C36.3536 12.7771 36.5569 13.1438 36.428 13.5949C36.0761 13.3322 35.7539 13.0596 35.402 12.8316C34.7973 12.4301 34.1926 12.0286 33.5581 11.6816C32.7551 11.2405 31.9472 10.7994 31.1046 10.4474C29.8208 9.90221 28.5023 9.43133 27.1095 9.20332C26.0042 9.02488 24.879 8.9654 23.7588 9.01497C23.1046 9.03975 22.4503 9.05462 21.796 9.10915C21.2111 9.15871 20.6312 9.25784 20.0215 9.32724C19.9621 9.33219 19.9026 9.34706 19.8431 9.36689C19.8431 9.36689 19.8332 9.37185 19.8134 9.35698C19.7093 9.33219 19.6201 9.30741 19.5308 9.30741C18.8072 9.32724 18.0835 9.22315 17.3945 9.00506" fill="#FBFBFB"/>
<path d="M17.3866 8.99714C18.0954 9.24002 18.8141 9.29454 19.5378 9.2995C19.627 9.2995 19.7162 9.32428 19.8153 9.34907C19.2651 9.48785 18.6951 9.58698 18.14 9.74064C17.4411 9.92899 16.7571 10.1471 16.078 10.385C15.5427 10.5783 15.0272 10.8261 14.5068 11.0641C13.9219 11.3317 13.3321 11.5795 12.767 11.8869C11.8946 12.3627 11.0371 12.8683 10.1945 13.3937C9.61954 13.7555 9.08918 14.1768 8.53899 14.5734C8.43986 14.6477 8.35559 14.6626 8.24159 14.5981C8.06315 14.499 7.86984 14.4247 7.69141 14.3404C7.84011 14.1818 7.96898 13.9934 8.14246 13.8596C8.72239 13.3937 9.30231 12.9178 9.90702 12.4866C10.4076 12.1297 10.938 11.8224 11.4634 11.5002C11.8946 11.2375 12.3259 10.9649 12.7819 10.7468C13.7236 10.2908 14.6505 9.79021 15.6617 9.49281C16.2317 9.32428 16.8066 9.16071 17.3915 8.99219" fill="#069871"/>
<path d="M5.34709 26.4625C5.41649 26.7153 5.47597 26.978 5.55527 27.2258C5.89232 28.2518 6.30868 29.2481 6.80434 30.2047C7.24548 31.0721 7.69654 31.9346 8.27646 32.7177C8.43508 32.9309 8.58873 33.149 8.74239 33.377C8.57882 33.2481 8.40038 33.1192 8.26159 32.9507C7.7461 32.3361 7.22566 31.7165 6.74486 31.0771C6.31364 30.4823 5.97163 29.8231 5.73867 29.1291C5.50571 28.4699 5.31736 27.7909 5.129 27.1168C5.02987 26.7599 4.96048 26.398 4.92578 26.0312C5.07448 26.1651 5.21327 26.3088 5.35205 26.4575L5.34709 26.4625Z" fill="#F5FAF8"/>
<path d="M6.50436 31.3965C6.62828 32.1747 6.88106 32.9281 7.25281 33.6221C7.5849 34.2268 7.95665 34.8216 8.30857 35.4114C8.36805 35.5105 8.4424 35.6047 8.50188 35.7138C8.4424 35.6989 8.37301 35.684 8.33831 35.6444C7.95665 35.2528 7.53038 34.891 7.21811 34.4498C6.74723 33.8055 6.4201 33.0719 6.26644 32.2887C6.17227 31.8625 6.16235 31.4263 6.2367 31L6.50436 31.3965Z" fill="#F6FAF9"/>
<path d="M3.78138 17.135C3.67729 17.6852 3.57816 18.2354 3.47903 18.7856C3.32537 19.653 3.3452 20.5254 3.50381 21.3928C3.58807 21.8785 3.67729 22.3692 3.82104 22.8351C3.95982 23.2862 4.17296 23.7174 4.34644 24.1784C4.30679 24.2131 4.27209 24.218 4.23739 24.223C3.78634 23.42 3.47407 22.5427 3.31546 21.6356C3.12215 20.6146 3.11224 19.5638 3.29563 18.5377C3.3799 18.0619 3.55338 17.6059 3.71695 17.135C3.7566 17.1301 3.76651 17.135 3.78138 17.135Z" fill="#EAF3F1"/>
<path d="M5.76248 15.9329C5.74761 15.4918 5.95084 15.1497 6.24328 14.8325C6.33745 14.8077 6.43163 14.7929 6.53076 14.7978C6.30276 15.125 6.07475 15.4372 6.07971 15.8635L5.76248 15.9329Z" fill="#F4FDFB"/>
<path d="M7.85967 26.7697C7.53253 26.5715 7.26983 26.3435 7.25 25.9222C7.31939 25.9023 7.39374 25.8924 7.46313 25.9023C7.55235 26.2889 7.82497 26.5169 8.09758 26.7499L7.85967 26.7697Z" fill="#F4FEFB"/>
<path d="M4.24219 24.2371C4.27688 24.2123 4.31158 24.2073 4.35619 24.1875C4.58419 24.5543 4.8122 24.931 5.03525 25.3275C4.82211 25.0698 4.60898 24.8021 4.40576 24.5345C4.34132 24.4502 4.29671 24.3461 4.24219 24.2371Z" fill="#DCEEE9"/>
<path d="M3.791 17.1244C3.791 17.1244 3.7563 17.1294 3.72656 17.1244C3.77613 16.9757 3.84552 16.837 3.91987 16.7031C3.88517 16.8469 3.84056 16.9857 3.791 17.1244Z" fill="#C6E7DF"/>
<path d="M17.258 31.6124C17.248 31.5727 17.2431 31.538 17.248 31.4885C17.2778 31.5182 17.3075 31.5628 17.3422 31.6272C17.3224 31.6322 17.2926 31.6272 17.258 31.6124ZM19.8552 9.35215C19.9048 9.33233 19.9544 9.31746 20.0039 9.3125C19.9544 9.33233 19.9048 9.3472 19.8552 9.35215Z" fill="#069871"/>
<path d="M3.974 16.5938C3.974 16.5938 3.96905 16.6483 3.94922 16.6879C3.94922 16.6532 3.95913 16.6235 3.974 16.5938Z" fill="#C6E7DF"/>
<path d="M8.48438 35.7344C8.50916 35.7344 8.53394 35.7542 8.54881 35.7839C8.51907 35.7839 8.49924 35.7641 8.48438 35.7344Z" fill="#F6FAF9"/>
<path d="M34.7148 28.9949C34.7148 28.9949 34.7347 28.9602 34.7495 28.9453C34.7545 28.9602 34.7595 28.985 34.7545 29.0097C34.7446 29.0147 34.7297 29.0097 34.7148 28.9949Z" fill="#FEFEFE"/>
<path d="M4.01878 16.5156L4.00391 16.5553C4.00391 16.5553 4.00391 16.5355 4.01878 16.5156Z" fill="#C6E7DF"/>
<path d="M4.77344 14.818C4.77344 14.818 4.77344 14.7883 4.80318 14.7734C4.80318 14.7883 4.79822 14.8032 4.77344 14.818Z" fill="#53FFD4"/>
<path d="M5.36102 26.4566C5.36102 26.4566 5.32632 26.4467 5.31641 26.4219C5.33128 26.4219 5.34615 26.4268 5.36102 26.4516" fill="#53FED4"/>
<path d="M36.2144 13.8529C36.2144 13.8529 36.1896 13.8529 36.1797 13.838C36.1896 13.8331 36.2045 13.8281 36.2243 13.8281C36.2243 13.8331 36.2243 13.843 36.2144 13.8529Z" fill="#FDFDFD"/>
<path d="M8.74609 33.4062C8.74609 33.4062 8.77583 33.4063 8.7907 33.4261C8.77583 33.431 8.76096 33.4261 8.74609 33.4062ZM8.7907 33.4509C8.7907 33.4509 8.82044 33.4509 8.83531 33.4657C8.82044 33.4756 8.80557 33.4657 8.7907 33.4509ZM8.82044 33.4905C8.82044 33.4905 8.84523 33.5004 8.8601 33.5252C8.85018 33.5252 8.83531 33.5153 8.82044 33.4905Z" fill="#F5FAF8"/>
<path d="M8.54688 35.8047C8.54688 35.8047 8.57166 35.8047 8.59148 35.8245C8.58157 35.8295 8.5667 35.8245 8.54688 35.8047Z" fill="#F6FAF9"/>
<path d="M33.5788 16.4081C33.1525 16.6262 32.8055 16.9682 32.5825 17.3895C32.3446 17.8009 32.3148 18.2619 32.2702 18.7377C32.0125 17.6671 31.383 16.9881 30.2578 16.7799C31.2937 16.2793 31.7498 15.4565 31.7299 14.3263C32.0075 15.4019 32.6271 16.1107 33.7721 16.309L33.5788 16.4081ZM34.6791 17.5184L34.7237 16.9732L34.7832 16.9484C34.8873 17.3796 35.0162 17.791 35.4573 18.0289C35.0856 18.361 35.031 18.7873 35.0558 19.2483H34.9864C34.9121 19.0451 34.8675 18.827 34.7634 18.6485C34.6643 18.4651 34.5007 18.3214 34.3768 18.1727C34.4709 17.9744 34.575 17.7563 34.6791 17.5184ZM33.4251 14.4255C33.3954 14.3858 33.3557 14.3263 33.3656 14.3214C33.668 14.0736 33.663 13.7315 33.6432 13.3895C33.6432 13.3548 33.6531 13.3152 33.6878 13.2656C33.7919 13.6473 33.8315 14.0636 34.2975 14.2371C33.896 14.5296 33.9356 14.9311 33.9208 15.3325C33.7919 15.0054 33.7721 14.6337 33.4251 14.4255Z" fill="white"/>
<path d="M6.07434 15.8643C6.114 15.8643 6.14869 15.8643 6.18835 15.8693C6.43618 15.904 6.67905 15.9189 6.9021 15.9932C7.59107 16.2063 8.09665 16.6871 8.47335 17.2621C8.79553 17.7528 9.05328 18.2931 9.27633 18.8334C9.57372 19.562 9.72242 20.3352 9.74225 21.1283C9.75216 21.5149 9.76703 21.9114 9.72242 22.298C9.6332 23.1109 9.46468 23.904 9.02354 24.6177C8.67658 25.1778 8.25031 25.6438 7.57125 25.8321L7.45724 25.8767C7.37794 25.8966 7.3135 25.8966 7.22428 25.9065C6.39157 25.9312 5.75712 25.5496 5.2218 24.9796C4.57249 24.2856 4.19083 23.448 3.91325 22.5508C3.69021 21.8519 3.57125 21.1283 3.56133 20.3947C3.53655 19.5223 3.68029 18.6549 3.97769 17.8321C4.19578 17.2671 4.49318 16.7664 4.94919 16.3798C5.17224 16.1915 5.47459 16.0874 5.75216 15.9387C5.86121 15.9089 5.9653 15.8891 6.0793 15.8594M9.0285 23.6958C9.0285 23.6958 9.04337 23.6512 9.05824 23.6264C9.11772 23.4083 9.17224 23.1902 9.2218 22.9721C9.41511 22.1345 9.41016 21.2869 9.29615 20.4393C9.18215 19.6363 8.93928 18.8581 8.56753 18.1394C8.24535 17.4455 7.7249 16.8656 7.07063 16.474C6.0793 16.0031 5.23172 16.3848 4.67657 17.2671C4.38909 17.7379 4.19083 18.2534 4.09169 18.7987C3.85377 20.013 3.9083 21.2076 4.25526 22.3873C4.50309 23.2051 4.84014 23.9734 5.41511 24.6227C5.82651 25.0886 6.30731 25.4505 6.94175 25.505C7.21933 25.5248 7.50185 25.4703 7.75464 25.3513C8.08674 25.1977 8.36431 24.9449 8.55266 24.6277C8.70136 24.36 8.82527 24.0725 8.9591 23.79H8.98884C8.9938 23.7602 8.99876 23.7305 8.99876 23.7008C8.99876 23.6562 9.00867 23.7107 9.0285 23.7008" fill="#090F0E"/>
<path d="M7.10559 16.5C7.78465 16.8817 8.24066 17.4616 8.58267 18.1456C8.94946 18.8693 9.2072 19.6375 9.31129 20.4455C9.42034 21.2881 9.42529 22.1406 9.23694 22.9783C9.18737 23.1964 9.12294 23.4195 9.04859 23.6524C9.02876 23.6822 9.01885 23.697 9.01885 23.7119C9.01885 23.7268 9.00894 23.702 9.00398 23.7119C8.98911 23.7416 8.9792 23.7664 8.97424 23.7912H8.95937C8.9098 23.8011 8.87015 23.8259 8.83545 23.8656C8.51823 24.1927 8.18118 24.495 7.69543 24.5496C7.32368 24.5942 6.90237 24.3761 6.81315 24.0638C6.71897 23.7466 6.63967 23.4294 6.57027 23.1072C6.42653 22.3488 6.2927 21.5855 6.1787 20.8172C6.09939 20.277 6.04983 19.7367 6.03 19.1964C6.01513 18.5768 6.02504 17.9573 6.0647 17.3377C6.08948 16.9064 6.45131 16.5991 6.87758 16.5694C6.95193 16.5644 7.02628 16.5297 7.10559 16.5099" fill="#FEFEFE"/>
<path d="M7.08683 16.4901C7.02239 16.5298 6.94804 16.5546 6.86874 16.5595C6.44247 16.5942 6.08559 16.9015 6.05585 17.3278C6.0162 17.9474 6.00628 18.567 6.02115 19.1865C6.04098 19.7318 6.09054 20.272 6.16985 20.8074C6.2789 21.5756 6.42264 22.339 6.56142 23.0973C6.6209 23.4195 6.71012 23.7367 6.8043 24.049C6.89352 24.3613 7.31483 24.5843 7.68658 24.5347C8.17233 24.4753 8.50442 24.1779 8.82165 23.8507C8.85634 23.816 8.90095 23.7863 8.95052 23.7764C8.83156 24.0639 8.70764 24.3513 8.55895 24.619C8.37555 24.9362 8.09798 25.189 7.76589 25.3427C7.5131 25.4616 7.23057 25.5112 6.94804 25.4914C6.31359 25.4418 5.83776 25.075 5.4214 24.6091C4.84643 23.9598 4.50442 23.1915 4.26155 22.3786C3.90963 21.2138 3.8551 19.9846 4.09798 18.79C4.19711 18.2497 4.39538 17.7293 4.68286 17.2584C5.238 16.3761 6.08559 15.9945 7.08683 16.4753M8.9753 23.7912C8.9753 23.7912 8.9753 23.7417 8.99513 23.7119C9.00009 23.7367 8.99513 23.7615 8.9753 23.7912ZM9.02487 23.702C9.02487 23.702 9.02487 23.6772 9.03478 23.6574C9.0447 23.6673 9.03974 23.6822 9.02487 23.702Z" fill="#069871"/>
</g>
<defs>
<clipPath id="clip0_7346_131804">
<rect width="40" height="40" fill="white"/>
</clipPath>
</defs>
</svg>
