<svg width="40" height="40" viewBox="0 0 40 40" fill="none" xmlns="http://www.w3.org/2000/svg">
<g clip-path="url(#clip0_7346_131773)">
<g clip-path="url(#clip1_7346_131773)">
<path d="M3.08594 28.7009V25.8438H6.46879V28.7009C6.46879 30.8376 8.20868 32.5701 10.3545 32.5701C11.6857 32.5701 12.9237 31.8917 13.6368 30.7727L16.6082 26.1062H29.7931C30.7266 26.1062 31.4846 26.8604 31.4846 27.7912C31.4846 28.721 30.7266 29.4753 29.7931 29.4753H18.4688L16.493 32.5766C15.16 34.6703 12.8441 35.9384 10.3545 35.9384C6.34079 35.9384 3.08594 32.6981 3.08594 28.7009Z" fill="white"/>
<path d="M3.08594 28.7009V25.8438H6.46879V28.7009C6.46879 30.8376 8.20868 32.5701 10.3545 32.5701C11.6857 32.5701 12.9237 31.8917 13.6368 30.7727L16.6082 26.1062H29.7931C30.7266 26.1062 31.4846 26.8604 31.4846 27.7912C31.4846 28.721 30.7266 29.4753 29.7931 29.4753H18.4688L16.493 32.5766C15.16 34.6703 12.8441 35.9384 10.3545 35.9384C6.34079 35.9384 3.08594 32.6981 3.08594 28.7009Z" fill="url(#paint0_linear_7346_131773)"/>
<path d="M33.1177 34.2131L30.6335 35.6412L28.9421 32.7246L31.4262 31.2956C33.285 30.2268 33.9222 27.8606 32.8489 26.0101C32.1833 24.8627 30.9746 24.134 29.6452 24.0791L24.101 23.8487L17.5081 12.4796C17.0409 11.6741 17.3188 10.6437 18.127 10.1792C18.9362 9.71385 19.9711 9.98997 20.4383 10.7955L26.0996 20.5609L29.786 20.7136C32.2729 20.816 34.5339 22.1792 35.7782 24.326C37.786 27.7875 36.5947 32.2144 33.1177 34.2131Z" fill="white"/>
<path d="M33.1177 34.2131L30.6335 35.6412L28.9421 32.7246L31.4262 31.2956C33.285 30.2268 33.9222 27.8606 32.8489 26.0101C32.1833 24.8627 30.9746 24.134 29.6452 24.0791L24.101 23.8487L17.5081 12.4796C17.0409 11.6741 17.3188 10.6437 18.127 10.1792C18.9362 9.71385 19.9711 9.98997 20.4383 10.7955L26.0996 20.5609L29.786 20.7136C32.2729 20.816 34.5339 22.1792 35.7782 24.326C37.786 27.7875 36.5947 32.2144 33.1177 34.2131Z" fill="url(#paint1_linear_7346_131773)"/>
<path d="M22.3946 5.072L24.8787 6.50103L23.1873 9.4176L20.7032 7.98949C18.8444 6.92068 16.4673 7.5552 15.3948 9.40571C14.7292 10.5531 14.7 11.9602 15.3171 13.1342L17.889 18.0302L11.297 29.3993C10.8298 30.2048 9.79575 30.4809 8.98661 30.0165C8.17747 29.5511 7.90044 28.5207 8.36764 27.7152L14.0289 17.9506L12.3192 14.6958C11.1654 12.4997 11.2202 9.86834 12.4646 7.7216C14.4723 4.26011 18.9176 3.07337 22.3946 5.07291V5.072Z" fill="white"/>
<path d="M22.3946 5.072L24.8787 6.50103L23.1873 9.4176L20.7032 7.98949C18.8444 6.92068 16.4673 7.5552 15.3948 9.40571C14.7292 10.5531 14.7 11.9602 15.3171 13.1342L17.889 18.0302L11.297 29.3993C10.8298 30.2048 9.79575 30.4809 8.98661 30.0165C8.17747 29.5511 7.90044 28.5207 8.36764 27.7152L14.0289 17.9506L12.3192 14.6958C11.1654 12.4997 11.2202 9.86834 12.4646 7.7216C14.4723 4.26011 18.9176 3.07337 22.3946 5.07291V5.072Z" fill="url(#paint2_linear_7346_131773)"/>
</g>
</g>
<defs>
<linearGradient id="paint0_linear_7346_131773" x1="21.6238" y1="20.9119" x2="11.9029" y2="40.3481" gradientUnits="userSpaceOnUse">
<stop offset="0.0855094" stop-color="#E01987" stop-opacity="0.98"/>
<stop offset="1" stop-color="#FC72FF"/>
</linearGradient>
<linearGradient id="paint1_linear_7346_131773" x1="29.9923" y1="-2.59701" x2="4.1742" y2="11.3124" gradientUnits="userSpaceOnUse">
<stop offset="0.0855094" stop-color="#E01987" stop-opacity="0.98"/>
<stop offset="1" stop-color="#FC72FF"/>
</linearGradient>
<linearGradient id="paint2_linear_7346_131773" x1="19.0668" y1="-8.66956" x2="-4.65462" y2="2.12568" gradientUnits="userSpaceOnUse">
<stop offset="0.0855094" stop-color="#E01987" stop-opacity="0.98"/>
<stop offset="1" stop-color="#FC72FF"/>
</linearGradient>
<clipPath id="clip0_7346_131773">
<rect width="33.8286" height="32" fill="white" transform="translate(3 4)"/>
</clipPath>
<clipPath id="clip1_7346_131773">
<rect width="33.8286" height="32" fill="white" transform="translate(3 4)"/>
</clipPath>
</defs>
</svg>
